<svg width="27" height="19" viewBox="0 0 27 19" fill="none" xmlns="http://www.w3.org/2000/svg">
<g clip-path="url(#clip0_1099_9228)">
<mask id="mask0_1099_9228" style="mask-type:alpha" maskUnits="userSpaceOnUse" x="0" y="0" width="27" height="19">
<path d="M24.4286 0H2.57143C1.15127 0 0 1.13421 0 2.53333V16.4667C0 17.8658 1.15127 19 2.57143 19H24.4286C25.8487 19 27 17.8658 27 16.4667V2.53333C27 1.13421 25.8487 0 24.4286 0Z" fill="white"/>
</mask>
<g mask="url(#mask0_1099_9228)">
<path d="M24.4286 0H2.57143C1.15127 0 0 1.13421 0 2.53333V16.4667C0 17.8658 1.15127 19 2.57143 19H24.4286C25.8487 19 27 17.8658 27 16.4667V2.53333C27 1.13421 25.8487 0 24.4286 0Z" fill="white"/>
<path fill-rule="evenodd" clip-rule="evenodd" d="M0 0H11.5714V8.86667H0V0Z" fill="#444379"/>
<path fill-rule="evenodd" clip-rule="evenodd" d="M1.28571 1.2666V2.53327H2.57142V1.2666H1.28571ZM3.85713 1.2666V2.53327H5.14285V1.2666H3.85713ZM6.42856 1.2666V2.53327H7.71428V1.2666H6.42856ZM8.99999 1.2666V2.53327H10.2857V1.2666H8.99999ZM7.71428 2.53327V3.79993H8.99999V2.53327H7.71428ZM5.14285 2.53327V3.79993H6.42856V2.53327H5.14285ZM2.57142 2.53327V3.79993H3.85713V2.53327H2.57142ZM1.28571 3.79993V5.0666H2.57142V3.79993H1.28571ZM3.85713 3.79993V5.0666H5.14285V3.79993H3.85713ZM6.42856 3.79993V5.0666H7.71428V3.79993H6.42856ZM8.99999 3.79993V5.0666H10.2857V3.79993H8.99999ZM1.28571 6.33327V7.59993H2.57142V6.33327H1.28571ZM3.85713 6.33327V7.59993H5.14285V6.33327H3.85713ZM6.42856 6.33327V7.59993H7.71428V6.33327H6.42856ZM8.99999 6.33327V7.59993H10.2857V6.33327H8.99999ZM7.71428 5.0666V6.33327H8.99999V5.0666H7.71428ZM5.14285 5.0666V6.33327H6.42856V5.0666H5.14285ZM2.57142 5.0666V6.33327H3.85713V5.0666H2.57142Z" fill="#A7B6E7"/>
<path fill-rule="evenodd" clip-rule="evenodd" d="M11.5714 0V1.26667H27V0H11.5714ZM11.5714 2.53333V3.8H27V2.53333H11.5714ZM11.5714 5.06667V6.33333H27V5.06667H11.5714ZM11.5714 7.6V8.86667H27V7.6H11.5714ZM0 10.1333V11.4H27V10.1333H0ZM0 12.6667V13.9333H27V12.6667H0ZM0 15.2V16.4667H27V15.2H0ZM0 17.7333V19H27V17.7333H0Z" fill="#ED4C49"/>
<path d="M24.4286 0.633301H2.57145C1.50633 0.633301 0.642883 1.48396 0.642883 2.5333V16.4666C0.642883 17.516 1.50633 18.3666 2.57145 18.3666H24.4286C25.4937 18.3666 26.3572 17.516 26.3572 16.4666V2.5333C26.3572 1.48396 25.4937 0.633301 24.4286 0.633301Z" stroke="black" stroke-opacity="0.1"/>
</g>
</g>
<defs>
<clipPath id="clip0_1099_9228">
<rect width="27" height="19" fill="white"/>
</clipPath>
</defs>
</svg>
