<svg width="27" height="19" viewBox="0 0 27 19" fill="none" xmlns="http://www.w3.org/2000/svg">
<g clip-path="url(#clip0_1099_9200)">
<mask id="mask0_1099_9200" style="mask-type:alpha" maskUnits="userSpaceOnUse" x="0" y="0" width="27" height="19">
<path d="M24.4286 0H2.57143C1.15127 0 0 1.13421 0 2.53333V16.4667C0 17.8658 1.15127 19 2.57143 19H24.4286C25.8487 19 27 17.8658 27 16.4667V2.53333C27 1.13421 25.8487 0 24.4286 0Z" fill="white"/>
</mask>
<g mask="url(#mask0_1099_9200)">
<path d="M24.4286 0H2.57143C1.15127 0 0 1.13421 0 2.53333V16.4667C0 17.8658 1.15127 19 2.57143 19H24.4286C25.8487 19 27 17.8658 27 16.4667V2.53333C27 1.13421 25.8487 0 24.4286 0Z" fill="#E70B17"/>
<path fill-rule="evenodd" clip-rule="evenodd" d="M18.0026 10.9591L16.5086 11.7317L16.794 10.0939L15.5854 8.93242L17.2568 8.69175L18.0026 7.20215L18.7483 8.69302L20.4197 8.93368L19.2111 10.0927L19.4966 11.7305" fill="white"/>
<path fill-rule="evenodd" clip-rule="evenodd" d="M12.2143 13.9333C14.6996 13.9333 16.7143 11.9485 16.7143 9.49998C16.7143 7.05152 14.6996 5.06665 12.2143 5.06665C9.72901 5.06665 7.71429 7.05152 7.71429 9.49998C7.71429 11.9485 9.72901 13.9333 12.2143 13.9333ZM13.5 12.6667C15.2743 12.6667 16.7143 11.248 16.7143 9.49998C16.7143 7.75198 15.2743 6.33332 13.5 6.33332C11.7257 6.33332 10.2857 7.75198 10.2857 9.49998C10.2857 11.248 11.7257 12.6667 13.5 12.6667Z" fill="white"/>
<path d="M24.4286 0.633301H2.57145C1.50633 0.633301 0.642883 1.48396 0.642883 2.5333V16.4666C0.642883 17.516 1.50633 18.3666 2.57145 18.3666H24.4286C25.4937 18.3666 26.3572 17.516 26.3572 16.4666V2.5333C26.3572 1.48396 25.4937 0.633301 24.4286 0.633301Z" stroke="black" stroke-opacity="0.1"/>
</g>
</g>
<defs>
<clipPath id="clip0_1099_9200">
<rect width="27" height="19" fill="white"/>
</clipPath>
</defs>
</svg>
